<mxfile host="Electron" agent="Mozilla/5.0 (Windows NT 10.0; Win64; x64) AppleWebKit/537.36 (KHTML, like Gecko) draw.io/25.0.2 Chrome/128.0.6613.186 Electron/32.2.5 Safari/537.36" version="25.0.2">
  <diagram name="Page-1" id="ToRyWyelbTETV15y-spT">
    <mxGraphModel dx="1036" dy="571" grid="1" gridSize="10" guides="1" tooltips="1" connect="1" arrows="1" fold="1" page="1" pageScale="1" pageWidth="850" pageHeight="1100" math="0" shadow="0">
      <root>
        <mxCell id="0" />
        <mxCell id="1" parent="0" />
        <mxCell id="uibNval97sseqed9MKlH-18" style="edgeStyle=orthogonalEdgeStyle;rounded=0;orthogonalLoop=1;jettySize=auto;html=1;exitX=0.5;exitY=1;exitDx=0;exitDy=0;entryX=0;entryY=0.75;entryDx=0;entryDy=0;" edge="1" parent="1" source="uibNval97sseqed9MKlH-1" target="uibNval97sseqed9MKlH-15">
          <mxGeometry relative="1" as="geometry" />
        </mxCell>
        <mxCell id="uibNval97sseqed9MKlH-34" style="edgeStyle=orthogonalEdgeStyle;rounded=0;orthogonalLoop=1;jettySize=auto;html=1;entryX=0;entryY=0.5;entryDx=0;entryDy=0;" edge="1" parent="1" source="uibNval97sseqed9MKlH-1" target="uibNval97sseqed9MKlH-27">
          <mxGeometry relative="1" as="geometry">
            <mxPoint x="90" y="210" as="targetPoint" />
            <Array as="points">
              <mxPoint x="60" y="235" />
            </Array>
          </mxGeometry>
        </mxCell>
        <mxCell id="uibNval97sseqed9MKlH-1" value="star&amp;nbsp;" style="ellipse;whiteSpace=wrap;html=1;" vertex="1" parent="1">
          <mxGeometry y="280" width="120" height="80" as="geometry" />
        </mxCell>
        <mxCell id="uibNval97sseqed9MKlH-3" value="end" style="ellipse;whiteSpace=wrap;html=1;" vertex="1" parent="1">
          <mxGeometry x="670" y="260" width="120" height="80" as="geometry" />
        </mxCell>
        <mxCell id="uibNval97sseqed9MKlH-21" style="edgeStyle=orthogonalEdgeStyle;rounded=0;orthogonalLoop=1;jettySize=auto;html=1;exitX=0.5;exitY=1;exitDx=0;exitDy=0;" edge="1" parent="1">
          <mxGeometry relative="1" as="geometry">
            <mxPoint x="360" y="280" as="targetPoint" />
            <mxPoint x="220" y="260" as="sourcePoint" />
            <Array as="points">
              <mxPoint x="225" y="280" />
            </Array>
          </mxGeometry>
        </mxCell>
        <mxCell id="uibNval97sseqed9MKlH-22" style="edgeStyle=orthogonalEdgeStyle;rounded=0;orthogonalLoop=1;jettySize=auto;html=1;" edge="1" parent="1" source="uibNval97sseqed9MKlH-15">
          <mxGeometry relative="1" as="geometry">
            <mxPoint x="360" y="320" as="targetPoint" />
            <Array as="points">
              <mxPoint x="225" y="330" />
              <mxPoint x="226" y="330" />
              <mxPoint x="226" y="320" />
            </Array>
          </mxGeometry>
        </mxCell>
        <mxCell id="uibNval97sseqed9MKlH-15" value="" style="swimlane;startSize=0;" vertex="1" parent="1">
          <mxGeometry x="170" y="360" width="110" height="50" as="geometry" />
        </mxCell>
        <mxCell id="uibNval97sseqed9MKlH-31" value="input B" style="text;html=1;align=center;verticalAlign=middle;resizable=0;points=[];autosize=1;strokeColor=none;fillColor=none;" vertex="1" parent="uibNval97sseqed9MKlH-15">
          <mxGeometry x="20" y="10" width="60" height="30" as="geometry" />
        </mxCell>
        <mxCell id="uibNval97sseqed9MKlH-38" style="edgeStyle=orthogonalEdgeStyle;rounded=0;orthogonalLoop=1;jettySize=auto;html=1;" edge="1" parent="1">
          <mxGeometry relative="1" as="geometry">
            <mxPoint x="570" y="500" as="targetPoint" />
            <mxPoint x="420" y="350" as="sourcePoint" />
            <Array as="points">
              <mxPoint x="420" y="410" />
              <mxPoint x="421" y="410" />
            </Array>
          </mxGeometry>
        </mxCell>
        <mxCell id="uibNval97sseqed9MKlH-39" style="edgeStyle=orthogonalEdgeStyle;rounded=0;orthogonalLoop=1;jettySize=auto;html=1;" edge="1" parent="1" source="uibNval97sseqed9MKlH-23">
          <mxGeometry relative="1" as="geometry">
            <mxPoint x="560" y="120" as="targetPoint" />
            <Array as="points">
              <mxPoint x="410" y="158" />
              <mxPoint x="411" y="158" />
            </Array>
          </mxGeometry>
        </mxCell>
        <mxCell id="uibNval97sseqed9MKlH-23" value="so sánh A và B" style="rhombus;whiteSpace=wrap;html=1;" vertex="1" parent="1">
          <mxGeometry x="340" y="235" width="140" height="135" as="geometry" />
        </mxCell>
        <mxCell id="uibNval97sseqed9MKlH-27" value="" style="swimlane;startSize=0;" vertex="1" parent="1">
          <mxGeometry x="170" y="210" width="120" height="50" as="geometry" />
        </mxCell>
        <mxCell id="uibNval97sseqed9MKlH-30" value="int A" style="text;html=1;align=center;verticalAlign=middle;resizable=0;points=[];autosize=1;strokeColor=none;fillColor=none;" vertex="1" parent="1">
          <mxGeometry x="195" y="218" width="50" height="30" as="geometry" />
        </mxCell>
        <mxCell id="uibNval97sseqed9MKlH-43" style="edgeStyle=orthogonalEdgeStyle;rounded=0;orthogonalLoop=1;jettySize=auto;html=1;entryX=0.603;entryY=1.005;entryDx=0;entryDy=0;entryPerimeter=0;" edge="1" parent="1" source="uibNval97sseqed9MKlH-40" target="uibNval97sseqed9MKlH-3">
          <mxGeometry relative="1" as="geometry">
            <mxPoint x="770" y="500" as="targetPoint" />
          </mxGeometry>
        </mxCell>
        <mxCell id="uibNval97sseqed9MKlH-40" value="A&amp;lt;=B" style="rounded=1;whiteSpace=wrap;html=1;" vertex="1" parent="1">
          <mxGeometry x="570" y="470" width="110" height="60" as="geometry" />
        </mxCell>
        <mxCell id="uibNval97sseqed9MKlH-41" value="A=&amp;gt;B" style="rounded=0;whiteSpace=wrap;html=1;" vertex="1" parent="1">
          <mxGeometry x="560" y="90" width="90" height="60" as="geometry" />
        </mxCell>
        <mxCell id="uibNval97sseqed9MKlH-44" style="edgeStyle=orthogonalEdgeStyle;rounded=0;orthogonalLoop=1;jettySize=auto;html=1;entryX=0.577;entryY=0.005;entryDx=0;entryDy=0;entryPerimeter=0;" edge="1" parent="1" source="uibNval97sseqed9MKlH-41" target="uibNval97sseqed9MKlH-3">
          <mxGeometry relative="1" as="geometry" />
        </mxCell>
      </root>
    </mxGraphModel>
  </diagram>
</mxfile>
